<svg data-v-e67db108="" xmlns="http://www.w3.org/2000/svg" width="34px" height="34px" viewBox="0 0 480 480" role="img"><title data-v-e67db108="" lang="en">Статистика</title><g data-v-e67db108="" fill="currentColor"><g data-v-e67db108=""><rect data-v-e67db108="" y="464" width="480" height="16"></rect><path data-v-e67db108="" d="M32,448h80c4.418,0,8-3.582,8-8V296c0-4.418-3.582-8-8-8H32c-4.418,0-8,3.582-8,8v144C24,444.418,27.582,448,32,448z
      M40,304h64v128H40V304z"></path><path data-v-e67db108="" d="M256,448h80c4.418,0,8-3.582,8-8V200c0-4.418-3.582-8-8-8h-80c-4.418,0-8,3.582-8,8v240C248,444.418,251.582,448,256,448
    z M264,208h64v224h-64V208z"></path><path data-v-e67db108="" d="M144,448h80c4.418,0,8-3.582,8-8V104c0-4.418-3.582-8-8-8h-80c-4.418,0-8,3.582-8,8v336C136,444.418,139.582,448,144,448
    z M152,112h64v320h-64V112z"></path><path data-v-e67db108="" d="M368,448h80c4.418,0,8-3.582,8-8V8c0-4.418-3.582-8-8-8h-80c-4.418,0-8,3.582-8,8v432C360,444.418,363.582,448,368,448z
      M376,16h64v416h-64V16z"></path></g></g></svg>